<svg width="40" height="25" viewBox="0 0 40 25" fill="none" xmlns="http://www.w3.org/2000/svg">
<g clip-path="url(#clip0_1_2384)">
<path d="M0 4.00195C0 1.79281 1.79086 0.00195312 4 0.00195312H36C38.2091 0.00195312 40 1.79281 40 4.00195V20.002C40 22.2111 38.2091 24.002 36 24.002H4C1.79086 24.002 0 22.2111 0 20.002V4.00195Z" fill="white"/>
<path fill-rule="evenodd" clip-rule="evenodd" d="M36 1.00195H4C2.34315 1.00195 1 2.3451 1 4.00195V20.002C1 21.6588 2.34315 23.002 4 23.002H36C37.6569 23.002 39 21.6588 39 20.002V4.00195C39 2.3451 37.6569 1.00195 36 1.00195ZM4 0.00195312C1.79086 0.00195312 0 1.79281 0 4.00195V20.002C0 22.2111 1.79086 24.002 4 24.002H36C38.2091 24.002 40 22.2111 40 20.002V4.00195C40 1.79281 38.2091 0.00195312 36 0.00195312H4Z" fill="#C3C3C3"/>
<path d="M14.8757 12.8395C14.6509 13.4917 14.3217 14.0664 13.8186 14.5262C13.5322 14.7908 13.1736 14.8229 12.831 14.6625C12.3038 14.4139 11.7979 14.4166 11.2707 14.6625C10.9362 14.8202 10.5963 14.7961 10.3072 14.5369C9.3518 13.6842 8.68807 11.9254 9.06008 10.6557C9.3063 9.81379 9.99946 9.26048 10.805 9.28454C10.9736 9.28989 11.1556 9.31394 11.3028 9.38879C11.7524 9.61599 12.178 9.59728 12.6276 9.38344C13.0237 9.19366 13.4439 9.20435 13.8587 9.34602C14.1932 9.45828 14.4689 9.65074 14.6777 9.96614C14.1665 10.3403 13.8587 10.8215 13.9069 11.471C13.9524 12.1098 14.311 12.5428 14.873 12.8449L14.8757 12.8395Z" fill="black"/>
<path d="M17.8678 14.6846H16.8508V8.01555C16.9204 8.0102 16.9873 7.99951 17.0542 7.99951C17.9722 8.01288 18.8982 7.96209 19.8082 8.06099C20.9081 8.18127 21.5718 9.09809 21.5451 10.2849C21.521 11.3888 20.785 12.2522 19.7198 12.3725C19.2274 12.4286 18.7242 12.4072 18.2264 12.4179C18.1167 12.4206 18.007 12.4179 17.8678 12.4179V14.6846ZM17.8839 11.5733C18.4459 11.5465 18.9999 11.5626 19.5378 11.4824C20.1454 11.3888 20.4853 10.8943 20.496 10.2261C20.5067 9.57121 20.1882 9.05533 19.5967 8.95376C19.0374 8.85753 18.4593 8.87624 17.8839 8.84149V11.5733Z" fill="black"/>
<path d="M22.0616 11.2784C22.0964 10.8 22.2971 10.4552 22.645 10.1959C23.3462 9.67195 24.5987 9.63987 25.3267 10.1264C25.6987 10.375 25.953 10.7225 25.961 11.1635C25.9851 12.3289 25.969 13.4943 25.969 14.6784H25.027V13.9407C24.9681 13.9835 24.9413 13.9968 24.9253 14.0182C24.3954 14.6918 23.563 14.9297 22.7574 14.633C22.1713 14.4191 21.8207 13.93 21.8154 13.3206C21.81 12.7298 22.1232 12.2621 22.7467 12.0776C23.1857 11.9493 23.654 11.9199 24.1117 11.8611C24.39 11.8264 24.6737 11.821 24.952 11.805C25.0778 11.225 24.9012 10.8214 24.4623 10.6637C23.8761 10.4525 23.282 10.6503 23.0331 11.1314C23.001 11.1929 22.9207 11.2651 22.8591 11.2677C22.6022 11.2838 22.3453 11.2731 22.0616 11.2731V11.2784ZM24.9627 12.4866C24.4275 12.5427 23.9002 12.5935 23.3784 12.6523C23.3034 12.6603 23.2312 12.7031 23.1642 12.7379C22.9501 12.8528 22.8297 13.0292 22.8297 13.2751C22.8297 13.521 22.9341 13.7135 23.1509 13.8204C23.6299 14.061 24.1036 14.0102 24.5399 13.7188C24.9601 13.4355 25.035 13.0105 24.9627 12.4839V12.4866Z" fill="black"/>
<path d="M26.9271 16.5015V15.7236C27.0208 15.7236 27.1038 15.7236 27.1841 15.7236C27.7381 15.7236 28.1957 15.2746 28.1877 14.7293C28.1877 14.6545 28.1475 14.5823 28.1208 14.5101C27.5909 13.0427 27.061 11.5752 26.531 10.1078C26.5043 10.0356 26.4802 9.96343 26.4401 9.84849C26.7853 9.84849 27.1065 9.8378 27.4249 9.85651C27.4811 9.85919 27.5534 9.97412 27.5775 10.0516C27.9415 11.2037 28.2974 12.3584 28.6587 13.5131C28.6828 13.5906 28.7149 13.6655 28.7658 13.8045C28.8166 13.6628 28.8461 13.5773 28.8728 13.4944C29.2288 12.3477 29.5901 11.2037 29.938 10.0543C29.9888 9.88859 30.0611 9.8378 30.2244 9.84315C30.4893 9.85651 30.7543 9.84582 31.046 9.84582C31.0165 9.95007 30.9978 10.0249 30.9737 10.0944C30.393 11.7249 29.8122 13.3581 29.2234 14.9859C29.1297 15.2425 29.0173 15.4964 28.8808 15.7317C28.5891 16.2422 28.1449 16.5095 27.548 16.5015C27.35 16.5015 27.1546 16.5015 26.9298 16.5015H26.9271Z" fill="black"/>
<path d="M11.9184 9.14582C11.8274 8.3573 12.4911 7.59016 13.3234 7.50195C13.5188 8.07397 12.8471 9.21799 11.9184 9.14582Z" fill="black"/>
</g>
<defs>
<clipPath id="clip0_1_2384">
<rect width="40" height="25" fill="white"/>
</clipPath>
</defs>
</svg>
