<svg width="40" height="40" viewBox="0 0 40 40" fill="none" xmlns="http://www.w3.org/2000/svg">
<circle cx="20" cy="20" r="20" fill="#6AD400"/>
<path d="M16.4836 17.3778C17.0636 18.5858 17.8542 19.718 18.8555 20.7193C19.8568 21.7206 20.9891 22.5113 22.1971 23.0913C22.301 23.1412 22.3529 23.1661 22.4187 23.1853C22.6523 23.2534 22.9392 23.2045 23.137 23.0628C23.1927 23.0229 23.2403 22.9753 23.3356 22.88C23.6269 22.5887 23.7726 22.443 23.9191 22.3478C24.4715 21.9886 25.1837 21.9886 25.7361 22.3478C25.8825 22.443 26.0282 22.5887 26.3196 22.88L26.4819 23.0424C26.9248 23.4853 27.1462 23.7067 27.2665 23.9446C27.5058 24.4175 27.5058 24.9761 27.2665 25.449C27.1462 25.6869 26.9248 25.9083 26.4819 26.3512L26.3506 26.4825C25.9092 26.9239 25.6886 27.1446 25.3885 27.3131C25.0556 27.5001 24.5385 27.6346 24.1567 27.6334C23.8126 27.6324 23.5774 27.5657 23.107 27.4322C20.5792 26.7147 18.1939 25.361 16.2039 23.371C14.2139 21.381 12.8602 18.9957 12.1427 16.4679C12.0092 15.9975 11.9424 15.7623 11.9414 15.4182C11.9403 15.0363 12.0747 14.5193 12.2618 14.1863C12.4303 13.8863 12.651 13.6656 13.0923 13.2243L13.2237 13.0929C13.6666 12.65 13.888 12.4286 14.1258 12.3083C14.5988 12.0691 15.1573 12.0691 15.6303 12.3083C15.8681 12.4286 16.0896 12.65 16.5324 13.0929L16.6948 13.2553C16.9862 13.5466 17.1318 13.6923 17.2271 13.8388C17.5862 14.3912 17.5862 15.1034 17.2271 15.6558C17.1318 15.8022 16.9862 15.9479 16.6948 16.2393C16.5996 16.3345 16.5519 16.3821 16.5121 16.4378C16.3704 16.6357 16.3215 16.9226 16.3896 17.1562C16.4087 17.2219 16.4337 17.2739 16.4836 17.3778Z" stroke="white" stroke-width="1.5" stroke-linecap="round" stroke-linejoin="round"/>
</svg>
