<svg width="40" height="40" viewBox="0 0 40 40" fill="none" xmlns="http://www.w3.org/2000/svg">
<circle cx="20" cy="20" r="20" fill="#4285F4"/>
<path d="M19.6667 13.3333H17C15.5999 13.3333 14.8998 13.3333 14.365 13.6058C13.8946 13.8455 13.5122 14.228 13.2725 14.6984C13 15.2331 13 15.9332 13 17.3333V21.6667C13 22.4416 13 22.8291 13.0852 23.147C13.3164 24.0098 13.9902 24.6836 14.853 24.9148C15.1709 25 15.5584 25 16.3333 25V26.9463C16.3333 27.3903 16.3333 27.6123 16.4244 27.7263C16.5035 27.8255 16.6236 27.8832 16.7504 27.8831C16.8964 27.8829 17.0697 27.7442 17.4165 27.4668L19.4043 25.8765C19.8104 25.5517 20.0135 25.3892 20.2396 25.2737C20.4402 25.1712 20.6537 25.0963 20.8743 25.051C21.1231 25 21.3831 25 21.9031 25H23.1667C24.5668 25 25.2669 25 25.8016 24.7275C26.272 24.4878 26.6545 24.1054 26.8942 23.635C27.1667 23.1002 27.1667 22.4001 27.1667 21V20.8333M27.2678 13.2322C28.2441 14.2085 28.2441 15.7915 27.2678 16.7678C26.2915 17.7441 24.7085 17.7441 23.7322 16.7678C22.7559 15.7915 22.7559 14.2085 23.7322 13.2322C24.7085 12.2559 26.2915 12.2559 27.2678 13.2322Z" stroke="white" stroke-width="1.5" stroke-linecap="round" stroke-linejoin="round"/>
</svg>
