<svg width="239" height="36" viewBox="0 0 239 36" fill="none" xmlns="http://www.w3.org/2000/svg">
<path d="M46.8038 28.0078V7.00781H56.9138C58.8738 7.00781 60.5638 7.32781 61.9838 7.96781C63.4238 8.60781 64.5338 9.52781 65.3138 10.7278C66.0938 11.9078 66.4838 13.3078 66.4838 14.9278C66.4838 16.5478 66.0938 17.9478 65.3138 19.1278C64.5338 20.3078 63.4238 21.2278 61.9838 21.8878C60.5638 22.5278 58.8738 22.8478 56.9138 22.8478H50.7338L53.8838 19.8178V28.0078H46.8038ZM53.8838 20.5978L50.7338 17.3878H56.4638C57.4438 17.3878 58.1638 17.1678 58.6238 16.7278C59.1038 16.2878 59.3438 15.6878 59.3438 14.9278C59.3438 14.1678 59.1038 13.5678 58.6238 13.1278C58.1638 12.6878 57.4438 12.4678 56.4638 12.4678H50.7338L53.8838 9.25781V20.5978ZM77.6557 28.3078C75.6557 28.3078 73.9057 27.9378 72.4057 27.1978C70.9257 26.4578 69.7757 25.4478 68.9557 24.1678C68.1357 22.8678 67.7257 21.4078 67.7257 19.7878C67.7257 18.1278 68.1257 16.6578 68.9257 15.3778C69.7457 14.0978 70.8557 13.0978 72.2557 12.3778C73.6757 11.6578 75.2657 11.2978 77.0257 11.2978C78.6457 11.2978 80.1357 11.6178 81.4957 12.2578C82.8757 12.8978 83.9757 13.8478 84.7957 15.1078C85.6357 16.3678 86.0557 17.9278 86.0557 19.7878C86.0557 20.0278 86.0457 20.2978 86.0257 20.5978C86.0057 20.8778 85.9857 21.1378 85.9657 21.3778H73.3357V18.1078H82.3657L79.8157 18.9778C79.8157 18.3378 79.6957 17.7978 79.4557 17.3578C79.2357 16.8978 78.9257 16.5478 78.5257 16.3078C78.1257 16.0478 77.6457 15.9178 77.0857 15.9178C76.5257 15.9178 76.0357 16.0478 75.6157 16.3078C75.2157 16.5478 74.9057 16.8978 74.6857 17.3578C74.4657 17.7978 74.3557 18.3378 74.3557 18.9778V19.9978C74.3557 20.6978 74.4957 21.2978 74.7757 21.7978C75.0557 22.2978 75.4557 22.6778 75.9757 22.9378C76.4957 23.1778 77.1257 23.2978 77.8657 23.2978C78.6257 23.2978 79.2457 23.1978 79.7257 22.9978C80.2257 22.7978 80.7457 22.4978 81.2857 22.0978L84.8257 25.6678C84.0257 26.5278 83.0357 27.1878 81.8557 27.6478C80.6957 28.0878 79.2957 28.3078 77.6557 28.3078ZM96.1153 28.3078C93.8553 28.3078 92.0953 27.7678 90.8353 26.6878C89.5753 25.5878 88.9453 23.9078 88.9453 21.6478V7.90781H95.7253V21.5878C95.7253 22.0878 95.8553 22.4778 96.1153 22.7578C96.3953 23.0378 96.7353 23.1778 97.1353 23.1778C97.7153 23.1778 98.2253 23.0278 98.6653 22.7278L100.285 27.4378C99.7653 27.7378 99.1353 27.9578 98.3953 28.0978C97.6753 28.2378 96.9153 28.3078 96.1153 28.3078ZM86.6953 17.4478V12.4978H99.0853V17.4478H86.6953ZM101.544 17.6878L104.064 9.25781L105.054 13.0378C103.894 13.0378 102.944 12.7078 102.204 12.0478C101.464 11.3678 101.094 10.4478 101.094 9.28781C101.094 8.10781 101.464 7.17781 102.204 6.49781C102.964 5.79781 103.914 5.44781 105.054 5.44781C106.194 5.44781 107.134 5.79781 107.874 6.49781C108.634 7.17781 109.014 8.10781 109.014 9.28781C109.014 9.60781 108.984 9.92781 108.924 10.2478C108.884 10.5678 108.784 10.9578 108.624 11.4178C108.464 11.8578 108.204 12.4578 107.844 13.2178L105.744 17.6878H101.544ZM116.94 28.3078C115.54 28.3078 114.16 28.1578 112.8 27.8578C111.44 27.5578 110.34 27.1678 109.5 26.6878L111.36 22.2178C112.14 22.6778 113.04 23.0378 114.06 23.2978C115.1 23.5578 116.11 23.6878 117.09 23.6878C117.91 23.6878 118.46 23.6178 118.74 23.4778C119.04 23.3378 119.19 23.1478 119.19 22.9078C119.19 22.6678 119.02 22.4978 118.68 22.3978C118.34 22.2778 117.89 22.1878 117.33 22.1278C116.77 22.0678 116.15 21.9978 115.47 21.9178C114.81 21.8178 114.14 21.6778 113.46 21.4978C112.78 21.3178 112.16 21.0478 111.6 20.6878C111.04 20.3278 110.59 19.8478 110.25 19.2478C109.91 18.6278 109.74 17.8478 109.74 16.9078C109.74 15.8678 110.05 14.9278 110.67 14.0878C111.31 13.2478 112.25 12.5778 113.49 12.0778C114.75 11.5578 116.3 11.2978 118.14 11.2978C119.34 11.2978 120.54 11.4078 121.74 11.6278C122.94 11.8478 123.97 12.1878 124.83 12.6478L122.97 17.1178C122.13 16.6578 121.3 16.3478 120.48 16.1878C119.68 16.0078 118.93 15.9178 118.23 15.9178C117.37 15.9178 116.78 15.9978 116.46 16.1578C116.16 16.3178 116.01 16.4978 116.01 16.6978C116.01 16.9378 116.18 17.1178 116.52 17.2378C116.86 17.3578 117.31 17.4478 117.87 17.5078C118.43 17.5678 119.04 17.6478 119.7 17.7478C120.38 17.8278 121.05 17.9678 121.71 18.1678C122.39 18.3478 123.01 18.6178 123.57 18.9778C124.13 19.3378 124.58 19.8278 124.92 20.4478C125.26 21.0478 125.43 21.8178 125.43 22.7578C125.43 23.7378 125.12 24.6578 124.5 25.5178C123.88 26.3578 122.94 27.0378 121.68 27.5578C120.42 28.0578 118.84 28.3078 116.94 28.3078ZM137.467 28.0078V7.00781H146.557C148.437 7.00781 150.057 7.31781 151.417 7.93781C152.777 8.53781 153.827 9.40781 154.567 10.5478C155.307 11.6878 155.677 13.0478 155.677 14.6278C155.677 16.1878 155.307 17.5378 154.567 18.6778C153.827 19.8178 152.777 20.6978 151.417 21.3178C150.057 21.9178 148.437 22.2178 146.557 22.2178H140.167L142.327 20.0278V28.0078H137.467ZM142.327 20.5678L140.167 18.2578H146.287C147.787 18.2578 148.907 17.9378 149.647 17.2978C150.387 16.6578 150.757 15.7678 150.757 14.6278C150.757 13.4678 150.387 12.5678 149.647 11.9278C148.907 11.2878 147.787 10.9678 146.287 10.9678H140.167L142.327 8.65781V20.5678ZM159.109 28.0078V5.74781H163.789V28.0078H159.109ZM178.033 28.0078V24.8578L177.733 24.1678V18.5278C177.733 17.5278 177.423 16.7478 176.803 16.1878C176.203 15.6278 175.273 15.3478 174.013 15.3478C173.153 15.3478 172.303 15.4878 171.463 15.7678C170.643 16.0278 169.943 16.3878 169.363 16.8478L167.683 13.5778C168.563 12.9578 169.623 12.4778 170.863 12.1378C172.103 11.7978 173.363 11.6278 174.643 11.6278C177.103 11.6278 179.013 12.2078 180.373 13.3678C181.733 14.5278 182.413 16.3378 182.413 18.7978V28.0078H178.033ZM173.113 28.2478C171.853 28.2478 170.773 28.0378 169.873 27.6178C168.973 27.1778 168.283 26.5878 167.803 25.8478C167.323 25.1078 167.083 24.2778 167.083 23.3578C167.083 22.3978 167.313 21.5578 167.773 20.8378C168.253 20.1178 169.003 19.5578 170.023 19.1578C171.043 18.7378 172.373 18.5278 174.013 18.5278H178.303V21.2578H174.523C173.423 21.2578 172.663 21.4378 172.243 21.7978C171.843 22.1578 171.643 22.6078 171.643 23.1478C171.643 23.7478 171.873 24.2278 172.333 24.5878C172.813 24.9278 173.463 25.0978 174.283 25.0978C175.063 25.0978 175.763 24.9178 176.383 24.5578C177.003 24.1778 177.453 23.6278 177.733 22.9078L178.453 25.0678C178.113 26.1078 177.493 26.8978 176.593 27.4378C175.693 27.9778 174.533 28.2478 173.113 28.2478ZM196.458 11.6278C197.738 11.6278 198.878 11.8878 199.878 12.4078C200.898 12.9078 201.698 13.6878 202.278 14.7478C202.858 15.7878 203.148 17.1278 203.148 18.7678V28.0078H198.468V19.4878C198.468 18.1878 198.178 17.2278 197.598 16.6078C197.038 15.9878 196.238 15.6778 195.198 15.6778C194.458 15.6778 193.788 15.8378 193.188 16.1578C192.608 16.4578 192.148 16.9278 191.808 17.5678C191.488 18.2078 191.328 19.0278 191.328 20.0278V28.0078H186.648V11.8678H191.118V16.3378L190.278 14.9878C190.858 13.9078 191.688 13.0778 192.768 12.4978C193.848 11.9178 195.078 11.6278 196.458 11.6278ZM215.518 28.2478C213.678 28.2478 212.058 27.8878 210.658 27.1678C209.278 26.4478 208.208 25.4678 207.448 24.2278C206.688 22.9678 206.308 21.5378 206.308 19.9378C206.308 18.3178 206.678 16.8878 207.418 15.6478C208.178 14.3878 209.208 13.4078 210.508 12.7078C211.808 11.9878 213.278 11.6278 214.918 11.6278C216.498 11.6278 217.918 11.9678 219.178 12.6478C220.458 13.3078 221.468 14.2678 222.208 15.5278C222.948 16.7678 223.318 18.2578 223.318 19.9978C223.318 20.1778 223.308 20.3878 223.288 20.6278C223.268 20.8478 223.248 21.0578 223.228 21.2578H210.118V18.5278H220.768L218.968 19.3378C218.968 18.4978 218.798 17.7678 218.458 17.1478C218.118 16.5278 217.648 16.0478 217.048 15.7078C216.448 15.3478 215.748 15.1678 214.948 15.1678C214.148 15.1678 213.438 15.3478 212.818 15.7078C212.218 16.0478 211.748 16.5378 211.408 17.1778C211.068 17.7978 210.898 18.5378 210.898 19.3978V20.1178C210.898 20.9978 211.088 21.7778 211.468 22.4578C211.868 23.1178 212.418 23.6278 213.118 23.9878C213.838 24.3278 214.678 24.4978 215.638 24.4978C216.498 24.4978 217.248 24.3678 217.888 24.1078C218.548 23.8478 219.148 23.4578 219.688 22.9378L222.178 25.6378C221.438 26.4778 220.508 27.1278 219.388 27.5878C218.268 28.0278 216.978 28.2478 215.518 28.2478ZM233.033 28.2478C231.133 28.2478 229.653 27.7678 228.593 26.8078C227.533 25.8278 227.003 24.3778 227.003 22.4578V8.29781H231.683V22.3978C231.683 23.0778 231.863 23.6078 232.223 23.9878C232.583 24.3478 233.073 24.5278 233.693 24.5278C234.433 24.5278 235.063 24.3278 235.583 23.9278L236.843 27.2278C236.363 27.5678 235.783 27.8278 235.103 28.0078C234.443 28.1678 233.753 28.2478 233.033 28.2478ZM224.513 15.8278V12.2278H235.703V15.8278H224.513Z" fill="#0600FF"/>
<path d="M11.2312 6.36223C9.95892 7.62663 10.1282 9.70438 11.6525 11.5496C12.0384 12.0151 12.3785 12.3384 12.9137 12.7536C13.7604 13.407 14.7087 13.8832 15.7416 14.1669C16.3441 14.3324 16.8759 14.4073 17.469 14.4069C18.2535 14.4063 18.8775 14.2748 19.4921 13.9828C19.7793 13.846 20.2313 13.5109 20.4229 13.2932C20.8024 12.8607 21.0193 12.3961 21.11 11.8285C21.2857 10.6974 20.8417 9.41611 19.8579 8.22171C19.4186 7.68933 18.9676 7.27966 18.3158 6.82413C17.4174 6.19726 16.5722 5.8102 15.5642 5.5697C14.9923 5.43206 14.6078 5.38633 14.0376 5.38675C13.2741 5.38593 12.6578 5.51189 12.0662 5.78985C11.8671 5.88204 11.3711 6.22128 11.2312 6.36223Z" fill="#0600FF"/>
<path d="M3.5638 12.6627C3.2745 12.9376 3.11731 13.1441 3.00024 13.3966C2.60295 14.2657 2.84447 15.3212 3.67345 16.3442C4.05546 16.818 4.43191 17.1678 5.01681 17.5913C6.02223 18.3241 7.15422 18.8476 8.43 19.1716C9.20464 19.3676 9.91246 19.4619 10.6147 19.4628C11.6211 19.462 12.4575 19.2787 13.1277 18.9073C13.955 18.4521 14.4 17.6708 14.3246 16.8118C14.2511 15.996 13.774 15.1485 12.9103 14.3041C12.6218 14.024 11.6412 13.3065 11.2569 13.099C9.71016 12.2593 8.12267 11.817 6.61877 11.8014C5.42483 11.7911 4.52524 12.0093 3.8128 12.4812C3.70363 12.5552 3.59254 12.6361 3.5638 12.6627Z" fill="#0600FF"/>
<path d="M4.15136 21.5624C3.80594 21.896 3.64245 22.1735 3.57069 22.5425C3.43284 23.2518 3.79728 24.0645 4.61168 24.855C4.85132 25.0898 5.57422 25.6249 5.91328 25.8173C6.43404 26.1148 7.03356 26.3958 7.59195 26.6004C9.71868 27.379 12.0657 27.5111 13.5962 26.9416C13.9451 26.8129 14.1084 26.724 14.4067 26.5065C14.6263 26.3437 14.7014 26.2781 14.8028 26.1523C14.9418 25.9828 15.0959 25.6903 15.1393 25.5194C15.2995 24.8976 15.0923 24.2323 14.5234 23.5277C14.224 23.1563 14.0629 23.0143 13.4374 22.5584C12.9037 22.1721 12.8381 22.1298 12.5028 21.9538C11.8771 21.6263 11.3018 21.3876 10.6329 21.1763C8.45725 20.4907 6.18321 20.4801 4.7931 21.1493C4.613 21.2341 4.24147 21.4749 4.15136 21.5624Z" fill="#0600FF"/>
<path d="M24.4109 8.54535C23.3126 9.69802 23.5066 11.7051 24.8821 13.4298C25.5465 14.2641 26.4697 14.9726 27.4365 15.3927C28.615 15.9042 29.8203 15.9922 30.7582 15.6389C31.0189 15.5417 31.1765 15.4569 31.3961 15.2969C31.6419 15.1177 31.7921 14.9673 31.9593 14.7362C32.288 14.2783 32.4481 13.733 32.4434 13.1003C32.442 12.7218 32.4068 12.48 32.3023 12.0975C32.0468 11.1535 31.4763 10.2426 30.6319 9.43023C30.381 9.1872 29.63 8.63165 29.3416 8.47336C28.6203 8.07902 27.9926 7.85403 27.316 7.75206C26.4781 7.62561 25.6662 7.73689 25.0546 8.06254C24.8651 8.16516 24.548 8.40178 24.4109 8.54535Z" fill="#0600FF"/>
<path d="M19.7441 19.3866C18.9446 20.0513 18.1165 21.0043 17.8739 21.5387C17.7065 21.9064 17.6705 22.1838 17.6749 23.076C17.6762 23.4381 17.6644 23.8425 17.6493 23.9737C17.6037 24.3481 17.4153 25.0014 17.0257 26.1262C16.397 27.9412 16.263 28.5685 16.4181 28.9687C16.5992 29.44 17.0091 29.9138 17.6234 30.3615C18.1122 30.7205 18.5356 30.947 19.0884 31.1475C19.6224 31.3425 20.0385 31.4242 20.6852 31.4606C22.8279 31.5806 25.146 30.9175 27.8627 29.407C28.8233 28.8734 29.7071 28.3167 31.9307 26.8462C32.792 26.2757 34.4697 25.0611 34.924 24.6782C36.754 23.1397 37.6631 21.9038 37.9161 20.6001C37.9784 20.2762 37.9923 19.742 37.9402 19.4851C37.8564 19.0521 37.5982 18.7079 37.0701 18.323C36.7536 18.0923 36.4576 17.9258 36.0641 17.754C35.0824 17.3284 34.342 17.18 33.2566 17.1904C32.741 17.1949 32.4016 17.2211 31.2616 17.3422C30.0747 17.4674 29.6323 17.4978 29.0417 17.4914C28.5281 17.4863 28.1419 17.4511 27.0266 17.3111C26.0763 17.1902 25.5589 17.1496 25.0659 17.1541C24.5522 17.16 24.2016 17.2026 23.7665 17.3122C22.3749 17.663 20.9003 18.4238 19.7441 19.3866Z" fill="#0600FF"/>
</svg>
