<svg width="375" height="239" viewBox="0 0 375 239" fill="none" xmlns="http://www.w3.org/2000/svg">
<path d="M406.5 119.868C406.5 152.437 383.176 182.024 345.246 203.496C307.332 224.96 254.92 238.252 197 238.252C139.08 238.252 86.6684 224.96 48.7539 203.496C10.8244 182.024 -12.5 152.437 -12.5 119.868C-12.5 87.2979 10.8244 57.7114 48.7539 36.2389C86.6684 14.775 139.08 1.4834 197 1.4834C254.92 1.4834 307.332 14.775 345.246 36.2389C383.176 57.7114 406.5 87.2979 406.5 119.868Z" stroke="#A4DEFD"/>
<path d="M312.5 118.736C312.5 136.767 299.585 153.191 278.485 165.136C257.4 177.072 228.239 184.471 196 184.471C163.761 184.471 134.6 177.072 113.515 165.136C92.415 153.191 79.5 136.767 79.5 118.736C79.5 100.704 92.415 84.28 113.515 72.3351C134.6 60.3986 163.761 53 196 53C228.239 53 257.4 60.3986 278.485 72.3351C299.585 84.28 312.5 100.704 312.5 118.736Z" stroke="#A4DEFD"/>
</svg>
