<svg width="14" height="12" viewBox="0 0 14 12" fill="none" xmlns="http://www.w3.org/2000/svg">
<path d="M12.7606 0.905273L12.1115 1.49648C11.6854 1.90578 11.4014 2.01189 10.4479 2.01189H7.81064C7.38461 2.01189 7.22232 1.98158 6.99917 1.84514C6.53257 1.54196 5.92397 1.34489 5.01107 1.34489C2.27235 1.34489 0.973999 3.05788 0.973999 4.78602C0.973999 5.92296 1.74489 6.62028 3.50984 6.62028C6.18769 6.62028 7.54692 4.98309 7.54692 3.17915C7.54692 3.04272 7.50635 2.72438 7.50635 2.6031H10.9754L1.68404 11.0619L2.31292 11.5015L13.43 1.32973L12.7606 0.905273ZM4.82848 1.89062C5.35595 1.89062 5.63996 2.16349 5.63996 2.76985C5.63996 3.66424 5.07193 6.05939 3.65185 6.05939C3.1244 6.05939 2.86067 5.75621 2.86067 5.07405C2.86067 4.17966 3.46927 1.89062 4.82848 1.89062ZM11.4623 5.92296C8.74384 5.92296 7.4252 7.62079 7.4252 9.43989C7.4252 10.592 8.27724 11.1984 9.96104 11.1984C12.6592 11.1984 13.9982 9.48537 13.9982 7.7269C13.9982 6.57481 13.1258 5.92296 11.4623 5.92296ZM11.3 6.46869C11.8071 6.46869 12.1115 6.69608 12.1115 7.30245C12.1115 8.212 11.5434 10.6526 10.1436 10.6526C9.59588 10.6526 9.31187 10.3646 9.31187 9.72792C9.31187 8.81836 9.90019 6.46869 11.3 6.46869Z" fill="#001C72"/>
</svg>
