<svg width="441" height="110" viewBox="0 0 441 110" fill="none" xmlns="http://www.w3.org/2000/svg">
<path d="M26.9985 11.88C26.4872 12.1371 26.1889 11.9657 26.3274 11.5029L27.4779 7.59429L23.7173 4.98857C23.2699 4.68 23.3764 4.38857 23.973 4.35429L28.9055 4.03714L30.8124 0.334286C31.0255 -0.111429 31.3983 -0.111429 31.622 0.334286L33.5396 4.03714L38.4615 4.35429C39.058 4.39714 39.1752 4.67143 38.7171 4.98857L34.9565 7.59429L36.1071 11.5029C36.2456 11.9657 35.9579 12.1371 35.4359 11.88L31.2172 9.79714L26.9985 11.88Z" fill="#F4A904"/>
<path d="M53.3514 7C53.3514 5.34315 54.6946 4 56.3514 4H392.535C394.192 4 395.535 5.34315 395.535 7C395.535 8.65685 394.192 10 392.535 10H56.3514C54.6946 10 53.3514 8.65685 53.3514 7Z" fill="#F4F4F6"/>
<path d="M53.3514 7C53.3514 5.34315 54.6946 4 56.3514 4H257.337C258.993 4 260.337 5.34315 260.337 7C260.337 8.65685 258.993 10 257.337 10H56.3514C54.6946 10 53.3514 8.65685 53.3514 7Z" fill="#9A9DB1"/>
<path d="M26.9985 35.88C26.4872 36.1371 26.1889 35.9657 26.3274 35.5029L27.4779 31.5943L23.7173 28.9886C23.2699 28.68 23.3764 28.3886 23.973 28.3543L28.9055 28.0371L30.8124 24.3343C31.0255 23.8886 31.3983 23.8886 31.622 24.3343L33.5396 28.0371L38.4615 28.3543C39.058 28.3971 39.1752 28.6714 38.7171 28.9886L34.9565 31.5943L36.1071 35.5029C36.2456 35.9657 35.9579 36.1371 35.4359 35.88L31.2172 33.7971L26.9985 35.88Z" fill="#F4A904"/>
<path d="M53.3514 31C53.3514 29.3431 54.6946 28 56.3514 28H392.535C394.192 28 395.535 29.3431 395.535 31C395.535 32.6569 394.192 34 392.535 34H56.3514C54.6946 34 53.3514 32.6569 53.3514 31Z" fill="#F4F4F6"/>
<path d="M53.3514 31C53.3514 29.3431 54.6946 28 56.3514 28H112.567C114.223 28 115.567 29.3431 115.567 31C115.567 32.6569 114.223 34 112.567 34H56.3514C54.6946 34 53.3514 32.6569 53.3514 31Z" fill="#9A9DB1"/>
<path d="M26.9985 59.88C26.4872 60.1371 26.1889 59.9657 26.3274 59.5029L27.4779 55.5943L23.7173 52.9886C23.2699 52.68 23.3764 52.3886 23.973 52.3543L28.9055 52.0371L30.8124 48.3343C31.0255 47.8886 31.3983 47.8886 31.622 48.3343L33.5396 52.0371L38.4615 52.3543C39.058 52.3971 39.1752 52.6714 38.7171 52.9886L34.9565 55.5943L36.1071 59.5029C36.2456 59.9657 35.9579 60.1371 35.4359 59.88L31.2172 57.7971L26.9985 59.88Z" fill="#F4A904"/>
<path d="M53.3514 55C53.3514 53.3431 54.6946 52 56.3514 52H392.535C394.192 52 395.535 53.3431 395.535 55C395.535 56.6569 394.192 58 392.535 58H56.3514C54.6946 58 53.3514 56.6569 53.3514 55Z" fill="#F4F4F6"/>
<path d="M53.3514 55C53.3514 53.3431 54.6946 52 56.3514 52H99.4057C101.063 52 102.406 53.3431 102.406 55C102.406 56.6569 101.063 58 99.4057 58H56.3514C54.6946 58 53.3514 56.6569 53.3514 55Z" fill="#9A9DB1"/>
<path d="M26.9985 83.88C26.4872 84.1371 26.1889 83.9657 26.3274 83.5029L27.4779 79.5943L23.7173 76.9886C23.2699 76.68 23.3764 76.3886 23.973 76.3543L28.9055 76.0371L30.8124 72.3343C31.0255 71.8886 31.3983 71.8886 31.622 72.3343L33.5396 76.0371L38.4615 76.3543C39.058 76.3971 39.1752 76.6714 38.7171 76.9886L34.9565 79.5943L36.1071 83.5029C36.2456 83.9657 35.9579 84.1371 35.4359 83.88L31.2172 81.7971L26.9985 83.88Z" fill="#F4A904"/>
<path d="M53.3514 79C53.3514 77.3431 54.6946 76 56.3514 76H392.535C394.192 76 395.535 77.3431 395.535 79C395.535 80.6569 394.192 82 392.535 82H56.3514C54.6946 82 53.3514 80.6569 53.3514 79Z" fill="#F4F4F6"/>
<path d="M53.3514 79C53.3514 77.3431 54.6946 76 56.3514 76H71.8875C73.5443 76 74.8875 77.3431 74.8875 79C74.8875 80.6569 73.5443 82 71.8875 82H56.3514C54.6946 82 53.3514 80.6569 53.3514 79Z" fill="#9A9DB1"/>
<path d="M26.9985 107.88C26.4872 108.137 26.1889 107.966 26.3274 107.503L27.4779 103.594L23.7173 100.989C23.2699 100.68 23.3764 100.389 23.973 100.354L28.9055 100.037L30.8124 96.3343C31.0255 95.8886 31.3983 95.8886 31.622 96.3343L33.5396 100.037L38.4615 100.354C39.058 100.397 39.1752 100.671 38.7171 100.989L34.9565 103.594L36.1071 107.503C36.2456 107.966 35.9579 108.137 35.4359 107.88L31.2172 105.797L26.9985 107.88Z" fill="#F4A904"/>
<path d="M53.3514 103C53.3514 101.343 54.6946 100 56.3514 100H392.535C394.192 100 395.535 101.343 395.535 103C395.535 104.657 394.192 106 392.535 106H56.3514C54.6946 106 53.3514 104.657 53.3514 103Z" fill="#F4F4F6"/>
<path d="M53.3514 103C53.3514 101.343 54.6946 100 56.3514 100H57.5301C59.187 100 60.5301 101.343 60.5301 103C60.5301 104.657 59.187 106 57.5301 106H56.3514C54.6946 106 53.3514 104.657 53.3514 103Z" fill="#9A9DB1"/>
<path d="M13.7701 5.93945L12.9029 5.7168L13.3307 1.46875H17.7076V2.4707H14.2506L13.9928 4.79102C14.149 4.70117 14.3463 4.61719 14.5846 4.53906C14.8268 4.46094 15.1041 4.42188 15.4166 4.42188C15.8111 4.42188 16.1647 4.49023 16.4772 4.62695C16.7897 4.75977 17.0553 4.95117 17.274 5.20117C17.4967 5.45117 17.6666 5.75195 17.7838 6.10352C17.901 6.45508 17.9596 6.84766 17.9596 7.28125C17.9596 7.69141 17.9029 8.06836 17.7897 8.41211C17.6803 8.75586 17.5143 9.05664 17.2916 9.31445C17.069 9.56836 16.7877 9.76562 16.4479 9.90625C16.1119 10.0469 15.7154 10.1172 15.2584 10.1172C14.9147 10.1172 14.5885 10.0703 14.2799 9.97656C13.9752 9.87891 13.7018 9.73242 13.4596 9.53711C13.2213 9.33789 13.026 9.0918 12.8736 8.79883C12.7252 8.50195 12.6315 8.1543 12.5924 7.75586H13.6236C13.6705 8.07617 13.7643 8.3457 13.9049 8.56445C14.0455 8.7832 14.2291 8.94922 14.4557 9.0625C14.6861 9.17188 14.9537 9.22656 15.2584 9.22656C15.5162 9.22656 15.7447 9.18164 15.944 9.0918C16.1432 9.00195 16.3111 8.87305 16.4479 8.70508C16.5846 8.53711 16.6881 8.33398 16.7584 8.0957C16.8326 7.85742 16.8697 7.58984 16.8697 7.29297C16.8697 7.02344 16.8326 6.77344 16.7584 6.54297C16.6842 6.3125 16.5729 6.11133 16.4244 5.93945C16.2799 5.76758 16.1022 5.63477 15.8912 5.54102C15.6803 5.44336 15.4381 5.39453 15.1647 5.39453C14.8014 5.39453 14.526 5.44336 14.3385 5.54102C14.1549 5.63867 13.9654 5.77148 13.7701 5.93945Z" fill="#001C72"/>
<path d="M415.09 5.61621L414.368 5.43066L414.724 1.89062H418.372V2.72559H415.491L415.276 4.65918C415.406 4.58431 415.571 4.51432 415.769 4.44922C415.971 4.38411 416.202 4.35156 416.462 4.35156C416.791 4.35156 417.086 4.40853 417.346 4.52246C417.607 4.63314 417.828 4.79264 418.01 5.00098C418.196 5.20931 418.337 5.45996 418.435 5.75293C418.533 6.0459 418.582 6.37305 418.582 6.73438C418.582 7.07617 418.534 7.3903 418.44 7.67676C418.349 7.96322 418.211 8.21387 418.025 8.42871C417.839 8.6403 417.605 8.80469 417.322 8.92188C417.042 9.03906 416.712 9.09766 416.331 9.09766C416.044 9.09766 415.772 9.05859 415.515 8.98047C415.261 8.89909 415.033 8.77702 414.832 8.61426C414.633 8.44824 414.47 8.24316 414.343 7.99902C414.22 7.75163 414.142 7.46191 414.109 7.12988H414.968C415.007 7.39681 415.086 7.62142 415.203 7.80371C415.32 7.986 415.473 8.12435 415.662 8.21875C415.854 8.3099 416.077 8.35547 416.331 8.35547C416.545 8.35547 416.736 8.31803 416.902 8.24316C417.068 8.16829 417.208 8.06087 417.322 7.9209C417.436 7.78092 417.522 7.61165 417.581 7.41309C417.642 7.21452 417.673 6.99154 417.673 6.74414C417.673 6.51953 417.642 6.3112 417.581 6.11914C417.519 5.92708 417.426 5.75944 417.302 5.61621C417.182 5.47298 417.034 5.3623 416.858 5.28418C416.682 5.2028 416.48 5.16211 416.253 5.16211C415.95 5.16211 415.72 5.2028 415.564 5.28418C415.411 5.36556 415.253 5.47624 415.09 5.61621ZM420.715 5.61621L419.993 5.43066L420.349 1.89062H423.997V2.72559H421.116L420.901 4.65918C421.031 4.58431 421.196 4.51432 421.394 4.44922C421.596 4.38411 421.827 4.35156 422.087 4.35156C422.416 4.35156 422.711 4.40853 422.971 4.52246C423.232 4.63314 423.453 4.79264 423.635 5.00098C423.821 5.20931 423.962 5.45996 424.06 5.75293C424.158 6.0459 424.207 6.37305 424.207 6.73438C424.207 7.07617 424.159 7.3903 424.065 7.67676C423.974 7.96322 423.836 8.21387 423.65 8.42871C423.464 8.6403 423.23 8.80469 422.947 8.92188C422.667 9.03906 422.337 9.09766 421.956 9.09766C421.669 9.09766 421.397 9.05859 421.14 8.98047C420.886 8.89909 420.658 8.77702 420.457 8.61426C420.258 8.44824 420.095 8.24316 419.968 7.99902C419.845 7.75163 419.767 7.46191 419.734 7.12988H420.593C420.632 7.39681 420.711 7.62142 420.828 7.80371C420.945 7.986 421.098 8.12435 421.287 8.21875C421.479 8.3099 421.702 8.35547 421.956 8.35547C422.17 8.35547 422.361 8.31803 422.527 8.24316C422.693 8.16829 422.833 8.06087 422.947 7.9209C423.061 7.78092 423.147 7.61165 423.206 7.41309C423.267 7.21452 423.298 6.99154 423.298 6.74414C423.298 6.51953 423.267 6.3112 423.206 6.11914C423.144 5.92708 423.051 5.75944 422.927 5.61621C422.807 5.47298 422.659 5.3623 422.483 5.28418C422.307 5.2028 422.105 5.16211 421.878 5.16211C421.575 5.16211 421.345 5.2028 421.189 5.28418C421.036 5.36556 420.878 5.47624 420.715 5.61621ZM429.856 8.25781V9H425.203V8.35059L427.532 5.75781C427.818 5.4388 428.04 5.16862 428.196 4.94727C428.355 4.72266 428.466 4.52246 428.528 4.34668C428.593 4.16764 428.626 3.98535 428.626 3.7998C428.626 3.56543 428.577 3.35384 428.479 3.16504C428.385 2.97298 428.245 2.81999 428.059 2.70605C427.874 2.59212 427.649 2.53516 427.385 2.53516C427.07 2.53516 426.806 2.59701 426.594 2.7207C426.386 2.84115 426.23 3.01042 426.126 3.22852C426.021 3.44661 425.969 3.69727 425.969 3.98047H425.066C425.066 3.58008 425.154 3.21387 425.33 2.88184C425.505 2.5498 425.766 2.28613 426.111 2.09082C426.456 1.89225 426.881 1.79297 427.385 1.79297C427.835 1.79297 428.219 1.87272 428.538 2.03223C428.857 2.18848 429.101 2.40983 429.27 2.69629C429.443 2.97949 429.529 3.31152 429.529 3.69238C429.529 3.90072 429.493 4.1123 429.421 4.32715C429.353 4.53874 429.257 4.75033 429.133 4.96191C429.013 5.1735 428.871 5.38184 428.709 5.58691C428.549 5.79199 428.378 5.99382 428.196 6.19238L426.292 8.25781H429.856Z" fill="#676986"/>
<path d="M18.1647 31.1289V32.0195H12.0006V31.3809L15.8209 25.4688H16.7057L15.7565 27.1797L13.2311 31.1289H18.1647ZM16.9752 25.4688V34H15.8912V25.4688H16.9752Z" fill="#001C72"/>
<path d="M416.917 25.8516V33H416.013V26.9795L414.192 27.6436V26.8281L416.775 25.8516H416.917ZM423.04 25.8809H423.118V26.6475H423.04C422.561 26.6475 422.161 26.7256 421.838 26.8818C421.516 27.0348 421.261 27.2415 421.072 27.502C420.883 27.7591 420.746 28.0488 420.662 28.3711C420.58 28.6934 420.54 29.0205 420.54 29.3525V30.3975C420.54 30.7132 420.577 30.9932 420.652 31.2373C420.727 31.4782 420.829 31.6816 420.96 31.8477C421.09 32.0137 421.236 32.139 421.399 32.2236C421.565 32.3083 421.738 32.3506 421.917 32.3506C422.125 32.3506 422.31 32.3115 422.473 32.2334C422.636 32.152 422.773 32.0397 422.883 31.8965C422.997 31.75 423.084 31.5775 423.142 31.3789C423.201 31.1803 423.23 30.9622 423.23 30.7246C423.23 30.513 423.204 30.3096 423.152 30.1143C423.1 29.9157 423.02 29.7399 422.913 29.5869C422.805 29.4307 422.67 29.3086 422.507 29.2207C422.348 29.1296 422.157 29.084 421.936 29.084C421.685 29.084 421.451 29.1458 421.233 29.2695C421.018 29.39 420.841 29.5495 420.701 29.748C420.564 29.9434 420.486 30.1566 420.466 30.3877L419.988 30.3828C420.033 30.0182 420.118 29.7074 420.242 29.4502C420.369 29.1898 420.525 28.9782 420.711 28.8154C420.899 28.6494 421.109 28.529 421.34 28.4541C421.575 28.376 421.822 28.3369 422.083 28.3369C422.437 28.3369 422.743 28.4036 423.001 28.5371C423.258 28.6706 423.469 28.8496 423.635 29.0742C423.801 29.2956 423.923 29.5462 424.002 29.8262C424.083 30.1029 424.124 30.3877 424.124 30.6807C424.124 31.016 424.076 31.3301 423.982 31.623C423.888 31.916 423.746 32.1732 423.557 32.3945C423.372 32.6159 423.142 32.7884 422.869 32.9121C422.595 33.0358 422.278 33.0977 421.917 33.0977C421.532 33.0977 421.197 33.0195 420.911 32.8633C420.624 32.7038 420.387 32.4922 420.198 32.2285C420.009 31.9648 419.867 31.6719 419.773 31.3496C419.679 31.0273 419.631 30.7002 419.631 30.3682V29.9434C419.631 29.4421 419.682 28.9505 419.783 28.4688C419.884 27.987 420.058 27.5508 420.305 27.1602C420.556 26.7695 420.903 26.4587 421.345 26.2275C421.788 25.9964 422.353 25.8809 423.04 25.8809ZM429.793 25.8906V26.3984L426.848 33H425.896L428.836 26.6328H424.988V25.8906H429.793Z" fill="#676986"/>
<path d="M13.9811 53.2012H14.7545C15.1334 53.2012 15.4459 53.1387 15.692 53.0137C15.942 52.8848 16.1275 52.7109 16.2486 52.4922C16.3736 52.2695 16.4361 52.0195 16.4361 51.7422C16.4361 51.4141 16.3815 51.1387 16.2721 50.916C16.1627 50.6934 15.9986 50.5254 15.7799 50.4121C15.5611 50.2988 15.2838 50.2422 14.9479 50.2422C14.6432 50.2422 14.3736 50.3027 14.1393 50.4238C13.9088 50.541 13.7272 50.709 13.5943 50.9277C13.4654 51.1465 13.401 51.4043 13.401 51.7012H12.317C12.317 51.2676 12.4264 50.873 12.6451 50.5176C12.8639 50.1621 13.1705 49.8789 13.565 49.668C13.9635 49.457 14.4244 49.3516 14.9479 49.3516C15.4635 49.3516 15.9147 49.4434 16.3014 49.627C16.6881 49.8066 16.9889 50.0762 17.2037 50.4355C17.4186 50.791 17.526 51.2344 17.526 51.7656C17.526 51.9805 17.4752 52.2109 17.3736 52.457C17.276 52.6992 17.1217 52.9258 16.9107 53.1367C16.7037 53.3477 16.4342 53.5215 16.1022 53.6582C15.7701 53.791 15.3717 53.8574 14.9068 53.8574H13.9811V53.2012ZM13.9811 54.0918V53.4414H14.9068C15.4498 53.4414 15.899 53.5059 16.2545 53.6348C16.61 53.7637 16.8893 53.9355 17.0924 54.1504C17.2994 54.3652 17.444 54.6016 17.526 54.8594C17.6119 55.1133 17.6549 55.3672 17.6549 55.6211C17.6549 56.0195 17.5865 56.373 17.4498 56.6816C17.317 56.9902 17.1275 57.252 16.8815 57.4668C16.6393 57.6816 16.3541 57.8438 16.026 57.9531C15.6979 58.0625 15.3404 58.1172 14.9537 58.1172C14.5826 58.1172 14.233 58.0645 13.9049 57.959C13.5807 57.8535 13.2936 57.7012 13.0436 57.502C12.7936 57.2988 12.5982 57.0508 12.4576 56.7578C12.317 56.4609 12.2467 56.123 12.2467 55.7441H13.3307C13.3307 56.041 13.3951 56.3008 13.524 56.5234C13.6568 56.7461 13.8443 56.9199 14.0865 57.0449C14.3326 57.166 14.6217 57.2266 14.9537 57.2266C15.2857 57.2266 15.5709 57.1699 15.8092 57.0566C16.0514 56.9395 16.2369 56.7637 16.3658 56.5293C16.4986 56.2949 16.565 56 16.565 55.6445C16.565 55.2891 16.4908 54.998 16.3424 54.7715C16.194 54.541 15.983 54.3711 15.7096 54.2617C15.44 54.1484 15.1217 54.0918 14.7545 54.0918H13.9811Z" fill="#001C72"/>
<path d="M416.917 49.8516V57H416.013V50.9795L414.192 51.6436V50.8281L416.775 49.8516H416.917ZM420.891 53.001H421.536C421.851 53.001 422.112 52.9489 422.317 52.8447C422.525 52.7373 422.68 52.5924 422.781 52.4102C422.885 52.2246 422.937 52.0163 422.937 51.7852C422.937 51.5117 422.892 51.2822 422.8 51.0967C422.709 50.9111 422.573 50.7712 422.39 50.6768C422.208 50.5824 421.977 50.5352 421.697 50.5352C421.443 50.5352 421.218 50.5856 421.023 50.6865C420.831 50.7842 420.68 50.9242 420.569 51.1064C420.462 51.2887 420.408 51.5036 420.408 51.751H419.504C419.504 51.3896 419.596 51.0609 419.778 50.7646C419.96 50.4684 420.216 50.2324 420.545 50.0566C420.877 49.8809 421.261 49.793 421.697 49.793C422.127 49.793 422.503 49.8695 422.825 50.0225C423.147 50.1722 423.398 50.3968 423.577 50.6963C423.756 50.9925 423.845 51.362 423.845 51.8047C423.845 51.9837 423.803 52.1758 423.718 52.3809C423.637 52.5827 423.508 52.7715 423.333 52.9473C423.16 53.123 422.935 53.2679 422.659 53.3818C422.382 53.4925 422.05 53.5479 421.663 53.5479H420.891V53.001ZM420.891 53.7432V53.2012H421.663C422.115 53.2012 422.49 53.2549 422.786 53.3623C423.082 53.4697 423.315 53.613 423.484 53.792C423.656 53.971 423.777 54.168 423.845 54.3828C423.917 54.5944 423.953 54.806 423.953 55.0176C423.953 55.3496 423.896 55.6442 423.782 55.9014C423.671 56.1585 423.513 56.3766 423.308 56.5557C423.106 56.7347 422.869 56.8698 422.595 56.9609C422.322 57.0521 422.024 57.0977 421.702 57.0977C421.392 57.0977 421.101 57.0537 420.828 56.9658C420.558 56.8779 420.318 56.751 420.11 56.585C419.902 56.4157 419.739 56.209 419.622 55.9648C419.504 55.7174 419.446 55.4359 419.446 55.1201H420.349C420.349 55.3675 420.403 55.584 420.51 55.7695C420.621 55.9551 420.777 56.0999 420.979 56.2041C421.184 56.305 421.425 56.3555 421.702 56.3555C421.978 56.3555 422.216 56.3083 422.415 56.2139C422.616 56.1162 422.771 55.9697 422.878 55.7744C422.989 55.5791 423.045 55.3333 423.045 55.0371C423.045 54.7409 422.983 54.4984 422.859 54.3096C422.735 54.1175 422.559 53.9759 422.332 53.8848C422.107 53.7904 421.842 53.7432 421.536 53.7432H420.891ZM429.856 56.2578V57H425.203V56.3506L427.532 53.7578C427.818 53.4388 428.04 53.1686 428.196 52.9473C428.355 52.7227 428.466 52.5225 428.528 52.3467C428.593 52.1676 428.626 51.9854 428.626 51.7998C428.626 51.5654 428.577 51.3538 428.479 51.165C428.385 50.973 428.245 50.82 428.059 50.7061C427.874 50.5921 427.649 50.5352 427.385 50.5352C427.07 50.5352 426.806 50.597 426.594 50.7207C426.386 50.8411 426.23 51.0104 426.126 51.2285C426.021 51.4466 425.969 51.6973 425.969 51.9805H425.066C425.066 51.5801 425.154 51.2139 425.33 50.8818C425.505 50.5498 425.766 50.2861 426.111 50.0908C426.456 49.8923 426.881 49.793 427.385 49.793C427.835 49.793 428.219 49.8727 428.538 50.0322C428.857 50.1885 429.101 50.4098 429.27 50.6963C429.443 50.9795 429.529 51.3115 429.529 51.6924C429.529 51.9007 429.493 52.1123 429.421 52.3271C429.353 52.5387 429.257 52.7503 429.133 52.9619C429.013 53.1735 428.871 53.3818 428.709 53.5869C428.549 53.792 428.378 53.9938 428.196 54.1924L426.292 56.2578H429.856Z" fill="#676986"/>
<path d="M17.9889 81.1094V82H12.4049V81.2207L15.1998 78.1094C15.5436 77.7266 15.8092 77.4023 15.9967 77.1367C16.1881 76.8672 16.3209 76.627 16.3951 76.416C16.4732 76.2012 16.5123 75.9824 16.5123 75.7598C16.5123 75.4785 16.4537 75.2246 16.3365 74.998C16.2232 74.7676 16.0553 74.584 15.8326 74.4473C15.61 74.3105 15.3404 74.2422 15.024 74.2422C14.6451 74.2422 14.3287 74.3164 14.0748 74.4648C13.8248 74.6094 13.6373 74.8125 13.5123 75.0742C13.3873 75.3359 13.3248 75.6367 13.3248 75.9766H12.2408C12.2408 75.4961 12.3463 75.0566 12.5572 74.6582C12.7682 74.2598 13.0807 73.9434 13.4947 73.709C13.9088 73.4707 14.4186 73.3516 15.024 73.3516C15.5631 73.3516 16.024 73.4473 16.4068 73.6387C16.7897 73.8262 17.0826 74.0918 17.2857 74.4355C17.4928 74.7754 17.5963 75.1738 17.5963 75.6309C17.5963 75.8809 17.5533 76.1348 17.4674 76.3926C17.3854 76.6465 17.2701 76.9004 17.1217 77.1543C16.9772 77.4082 16.8072 77.6582 16.6119 77.9043C16.4205 78.1504 16.2154 78.3926 15.9967 78.6309L13.7115 81.1094H17.9889Z" fill="#001C72"/>
<path d="M420.715 77.6162L419.993 77.4307L420.349 73.8906H423.997V74.7256H421.116L420.901 76.6592C421.031 76.5843 421.195 76.5143 421.394 76.4492C421.596 76.3841 421.827 76.3516 422.087 76.3516C422.416 76.3516 422.711 76.4085 422.971 76.5225C423.232 76.6331 423.453 76.7926 423.635 77.001C423.821 77.2093 423.962 77.46 424.06 77.7529C424.158 78.0459 424.207 78.373 424.207 78.7344C424.207 79.0762 424.159 79.3903 424.065 79.6768C423.974 79.9632 423.835 80.2139 423.65 80.4287C423.464 80.6403 423.23 80.8047 422.947 80.9219C422.667 81.0391 422.336 81.0977 421.956 81.0977C421.669 81.0977 421.397 81.0586 421.14 80.9805C420.886 80.8991 420.658 80.777 420.457 80.6143C420.258 80.4482 420.095 80.2432 419.968 79.999C419.845 79.7516 419.766 79.4619 419.734 79.1299H420.593C420.632 79.3968 420.71 79.6214 420.828 79.8037C420.945 79.986 421.098 80.1243 421.287 80.2188C421.479 80.3099 421.702 80.3555 421.956 80.3555C422.17 80.3555 422.361 80.318 422.527 80.2432C422.693 80.1683 422.833 80.0609 422.947 79.9209C423.061 79.7809 423.147 79.6117 423.206 79.4131C423.267 79.2145 423.298 78.9915 423.298 78.7441C423.298 78.5195 423.267 78.3112 423.206 78.1191C423.144 77.9271 423.051 77.7594 422.927 77.6162C422.807 77.473 422.659 77.3623 422.483 77.2842C422.307 77.2028 422.105 77.1621 421.877 77.1621C421.575 77.1621 421.345 77.2028 421.189 77.2842C421.036 77.3656 420.878 77.4762 420.715 77.6162ZM426.096 80.2432H426.189C426.71 80.2432 427.133 80.1699 427.458 80.0234C427.784 79.877 428.035 79.68 428.21 79.4326C428.386 79.1852 428.507 78.9069 428.572 78.5977C428.637 78.2852 428.669 77.9645 428.669 77.6357V76.5469C428.669 76.2246 428.632 75.9382 428.557 75.6875C428.486 75.4368 428.385 75.2269 428.254 75.0576C428.127 74.8883 427.983 74.7598 427.82 74.6719C427.657 74.584 427.485 74.54 427.302 74.54C427.094 74.54 426.907 74.5824 426.741 74.667C426.578 74.7484 426.44 74.8639 426.326 75.0137C426.215 75.1634 426.13 75.3392 426.072 75.541C426.013 75.7428 425.984 75.9626 425.984 76.2002C425.984 76.4118 426.01 76.6169 426.062 76.8154C426.114 77.014 426.194 77.193 426.301 77.3525C426.409 77.512 426.542 77.639 426.702 77.7334C426.864 77.8245 427.055 77.8701 427.273 77.8701C427.475 77.8701 427.664 77.8311 427.839 77.7529C428.018 77.6715 428.176 77.5625 428.313 77.4258C428.453 77.2858 428.564 77.1279 428.645 76.9521C428.73 76.7764 428.778 76.5924 428.791 76.4004H429.221C429.221 76.6706 429.167 76.9375 429.06 77.2012C428.956 77.4616 428.809 77.6992 428.621 77.9141C428.432 78.1289 428.21 78.3014 427.957 78.4316C427.703 78.5586 427.426 78.6221 427.126 78.6221C426.775 78.6221 426.471 78.5537 426.213 78.417C425.956 78.2803 425.745 78.098 425.579 77.8701C425.416 77.6423 425.294 77.3883 425.212 77.1084C425.134 76.8252 425.095 76.5387 425.095 76.249C425.095 75.9105 425.142 75.5931 425.237 75.2969C425.331 75.0007 425.471 74.7402 425.657 74.5156C425.842 74.2878 426.072 74.1104 426.345 73.9834C426.622 73.8564 426.941 73.793 427.302 73.793C427.709 73.793 428.056 73.8743 428.342 74.0371C428.629 74.1999 428.861 74.418 429.041 74.6914C429.223 74.9648 429.356 75.2725 429.441 75.6143C429.526 75.9561 429.568 76.3076 429.568 76.6689V76.9961C429.568 77.3639 429.543 77.7383 429.495 78.1191C429.449 78.4967 429.36 78.8581 429.226 79.2031C429.096 79.5482 428.905 79.8574 428.655 80.1309C428.404 80.401 428.077 80.6159 427.673 80.7754C427.273 80.9316 426.778 81.0098 426.189 81.0098H426.096V80.2432Z" fill="#676986"/>
<path d="M15.9615 97.4219V106H14.8775V98.7754L12.692 99.5723V98.5938L15.7916 97.4219H15.9615Z" fill="#001C72"/>
<path d="M427.754 97.4219V106H426.67V98.7754L424.484 99.5723V98.5938L427.584 97.4219H427.754Z" fill="#676986"/>
</svg>
