<svg width="20" height="21" viewBox="0 0 20 21" fill="none" xmlns="http://www.w3.org/2000/svg">
<g clip-path="url(#clip0_1_2400)">
<path d="M10.8128 8.1139C11.3367 8.1139 11.7652 7.68436 11.7652 7.15936V5.25027H13.67C14.1938 5.25027 14.6224 4.82072 14.6224 4.29572C14.6224 3.77072 14.1938 3.34118 13.67 3.34118H11.7652V1.43208C11.7652 0.907084 11.3367 0.477539 10.8128 0.477539C10.289 0.477539 9.86047 0.907084 9.86047 1.43208V3.34118H7.95572C7.43191 3.34118 7.00334 3.77072 7.00334 4.29572C7.00334 4.82072 7.43191 5.25027 7.95572 5.25027H9.86047V7.15936C9.86047 7.68436 10.289 8.1139 10.8128 8.1139ZM6.05096 16.7048C5.00334 16.7048 4.15572 17.5639 4.15572 18.6139C4.15572 19.6639 5.00334 20.523 6.05096 20.523C7.09858 20.523 7.95572 19.6639 7.95572 18.6139C7.95572 17.5639 7.09858 16.7048 6.05096 16.7048ZM15.5748 16.7048C14.5271 16.7048 13.6795 17.5639 13.6795 18.6139C13.6795 19.6639 14.5271 20.523 15.5748 20.523C16.6224 20.523 17.4795 19.6639 17.4795 18.6139C17.4795 17.5639 16.6224 16.7048 15.5748 16.7048ZM7.09858 11.9321H14.1938C14.9081 11.9321 15.5367 11.5407 15.8605 10.9489L18.9462 5.08799C19.1843 4.62981 19.0224 4.05708 18.5652 3.8089C18.0986 3.55118 17.5176 3.73254 17.27 4.20027L14.1938 10.023H7.5081L3.45096 1.43208H1.28905C0.765241 1.43208 0.33667 1.86163 0.33667 2.38663C0.33667 2.91163 0.765241 3.34118 1.28905 3.34118H2.24144L5.67001 10.5862L4.38429 12.9153C3.68905 14.1944 4.60334 15.7503 6.05096 15.7503H16.5271C17.0509 15.7503 17.4795 15.3207 17.4795 14.7957C17.4795 14.2707 17.0509 13.8412 16.5271 13.8412H6.05096L7.09858 11.9321Z" fill="white"/>
</g>
<defs>
<clipPath id="clip0_1_2400">
<rect width="20" height="21" fill="white"/>
</clipPath>
</defs>
</svg>
