<svg width="33" height="20" viewBox="0 0 33 20" fill="none" xmlns="http://www.w3.org/2000/svg">
<path d="M8.99951 3.75183L2.74951 3.75488" stroke="white" stroke-width="1.5" stroke-linecap="round" stroke-linejoin="round"/>
<path d="M7.74951 8.75214L3.99951 8.75488" stroke="white" stroke-width="1.5" stroke-linecap="round" stroke-linejoin="round"/>
<path d="M26.4995 3.75488H13.9995L11.4995 13.3419H23.9995L26.4995 3.75488Z" stroke="white" stroke-width="1.5" stroke-linecap="round" stroke-linejoin="round"/>
<path d="M25.837 6.67529H27.3328L29.8328 9.17529V13.342H23.9995L25.837 6.67529Z" stroke="white" stroke-width="1.5" stroke-linecap="round" stroke-linejoin="round"/>
<path d="M15.2497 17.5085C16.4003 17.5085 17.333 16.5757 17.333 15.4251C17.333 14.2745 16.4003 13.3418 15.2497 13.3418C14.0991 13.3418 13.1664 14.2745 13.1664 15.4251C13.1664 16.5757 14.0991 17.5085 15.2497 17.5085Z" stroke="white" stroke-width="1.5" stroke-linecap="round" stroke-linejoin="round"/>
<path d="M26.0828 17.5085C27.2334 17.5085 28.1662 16.5757 28.1662 15.4251C28.1662 14.2745 27.2334 13.3418 26.0828 13.3418C24.9323 13.3418 23.9995 14.2745 23.9995 15.4251C23.9995 16.5757 24.9323 17.5085 26.0828 17.5085Z" stroke="white" stroke-width="1.5" stroke-linecap="round" stroke-linejoin="round"/>
</svg>
