<svg width="40" height="40" viewBox="0 0 40 40" fill="none" xmlns="http://www.w3.org/2000/svg">
<circle cx="20" cy="20" r="20" fill="#010101"/>
<path d="M12.1666 15.833L18.9707 20.5959C19.5217 20.9816 19.7972 21.1744 20.0968 21.2491C20.3615 21.3151 20.6384 21.3151 20.9031 21.2491C21.2027 21.1744 21.4782 20.9816 22.0292 20.5959L28.8333 15.833M16.1666 26.6663H24.8333C26.2334 26.6663 26.9335 26.6663 27.4683 26.3939C27.9387 26.1542 28.3211 25.7717 28.5608 25.3013C28.8333 24.7665 28.8333 24.0665 28.8333 22.6663V17.333C28.8333 15.9329 28.8333 15.2328 28.5608 14.698C28.3211 14.2276 27.9387 13.8452 27.4683 13.6055C26.9335 13.333 26.2334 13.333 24.8333 13.333H16.1666C14.7665 13.333 14.0664 13.333 13.5316 13.6055C13.0612 13.8452 12.6788 14.2276 12.4391 14.698C12.1666 15.2328 12.1666 15.9329 12.1666 17.333V22.6663C12.1666 24.0665 12.1666 24.7665 12.4391 25.3013C12.6788 25.7717 13.0612 26.1542 13.5316 26.3939C14.0664 26.6663 14.7665 26.6663 16.1666 26.6663Z" stroke="white" stroke-width="1.5" stroke-linecap="round" stroke-linejoin="round"/>
</svg>
