<svg width="40" height="25" viewBox="0 0 40 25" fill="none" xmlns="http://www.w3.org/2000/svg">
<g clip-path="url(#clip0_1_2374)">
<path d="M0 4.00195C0 1.79281 1.79086 0.00195312 4 0.00195312H36C38.2091 0.00195312 40 1.79281 40 4.00195V20.002C40 22.2111 38.2091 24.002 36 24.002H4C1.79086 24.002 0 22.2111 0 20.002V4.00195Z" fill="black"/>
<path fill-rule="evenodd" clip-rule="evenodd" d="M36 1.00195H4C2.34315 1.00195 1 2.3451 1 4.00195V20.002C1 21.6588 2.34315 23.002 4 23.002H36C37.6569 23.002 39 21.6588 39 20.002V4.00195C39 2.3451 37.6569 1.00195 36 1.00195ZM4 0.00195312C1.79086 0.00195312 0 1.79281 0 4.00195V20.002C0 22.2111 1.79086 24.002 4 24.002H36C38.2091 24.002 40 22.2111 40 20.002V4.00195C40 1.79281 38.2091 0.00195312 36 0.00195312H4Z" fill="#C3C3C3"/>
<path d="M8.40153 12.4288C8.20107 12.0208 8.07136 11.5836 8.0124 11.1289C7.98882 10.7909 8.00061 10.447 8.04778 10.1089C8.12442 9.74745 8.24234 9.39771 8.40153 9.07129L9.66326 10.0273C9.50407 10.4936 9.50407 11.0007 9.66326 11.467L8.39564 12.423L8.40153 12.4288Z" fill="#F8BD01"/>
<path d="M18.0355 10.7844V7.65425C18.0355 7.55515 18.0532 7.52018 18.1593 7.52601H20.3526C21.2488 7.53767 22.0329 8.12057 22.2924 8.9716C22.5695 10.0033 21.9445 11.0642 20.895 11.3324C20.7889 11.3615 20.6828 11.379 20.5766 11.3907C20.1698 11.4373 19.7571 11.4023 19.3503 11.4081H18.967C18.8904 11.4081 18.8727 11.4315 18.8727 11.5014V13.9438C18.8727 14.0312 18.8491 14.0487 18.7666 14.0487H18.1239C18.0473 14.0487 18.0237 14.0254 18.0237 13.9496V10.7844H18.0355ZM18.8845 9.46707V10.4988C18.8845 10.5746 18.9022 10.6037 18.9788 10.6037H20.3762C21.007 10.5629 21.4846 10.0208 21.4433 9.39712C21.408 8.85502 20.9894 8.41785 20.4469 8.3479C19.9517 8.31292 19.4564 8.3479 18.9612 8.33624C18.8786 8.33624 18.8845 8.38287 18.8845 8.44116V9.4729V9.46707Z" fill="white"/>
<path d="M25.5174 13.4252C25.4644 13.4893 25.4113 13.5534 25.3582 13.6234C24.9986 14.0547 24.4444 14.2646 23.8901 14.1888C23.3772 14.1596 22.9055 13.8973 22.6048 13.4893C22.1391 12.8714 22.2688 11.9912 22.8937 11.5249C23.0117 11.4375 23.1414 11.3734 23.277 11.3209C23.9786 11.0469 24.7627 11.0644 25.4526 11.3675C25.4761 11.3675 25.4997 11.3967 25.5233 11.3909C25.5941 10.8021 25.1755 10.2659 24.58 10.1901C24.0906 10.0968 23.5836 10.295 23.2888 10.6914C23.2416 10.7555 23.2062 10.7497 23.1473 10.7089C22.9527 10.5865 22.764 10.4757 22.5636 10.3475C22.4928 10.3067 22.4869 10.2775 22.54 10.2192C22.8525 9.81115 23.3123 9.54302 23.8194 9.46141C24.2616 9.3798 24.7156 9.40895 25.1401 9.54302C25.8417 9.75286 26.3252 10.3941 26.3193 11.1227C26.337 12.0554 26.3193 12.9938 26.3193 13.944C26.3193 14.0023 26.3075 14.0314 26.2367 14.0256H25.5882C25.5233 14.0256 25.5056 14.0023 25.5056 13.944V13.4135L25.5174 13.4252ZM24.4915 11.8164C24.1024 11.7872 23.7251 11.9155 23.4421 12.1778C23.1649 12.4342 23.159 12.8656 23.4185 13.1337C23.4538 13.1687 23.4892 13.1978 23.5246 13.227C23.7486 13.3902 24.0316 13.466 24.3088 13.431C24.9337 13.3611 25.4349 12.9006 25.5469 12.2885C25.5764 12.1836 25.5233 12.0787 25.4231 12.0379C25.1342 11.8863 24.8099 11.8105 24.4797 11.8164H24.4974H24.4915Z" fill="white"/>
<path d="M28.7779 12.8018L29.3026 11.5369C29.5561 10.919 29.8097 10.3011 30.0632 9.66577C30.0809 9.60165 30.1457 9.56084 30.2106 9.5725H30.9181C31.0124 9.5725 31.0242 9.58999 30.9888 9.6716L29.9688 11.9741C29.391 13.2739 28.8191 14.5796 28.2472 15.8853C28.2295 15.9611 28.1529 16.0077 28.0763 15.9961H27.3216L27.64 15.3141C27.8758 14.8186 28.1116 14.3173 28.3475 13.8277C28.371 13.7811 28.371 13.7228 28.3475 13.6703C27.752 12.3471 27.1624 11.0239 26.5728 9.69491C26.5335 9.60942 26.561 9.56667 26.6553 9.56667H27.3393C27.4041 9.55502 27.4631 9.58999 27.4808 9.65411C27.9053 10.6684 28.3298 11.6768 28.7543 12.691C28.7543 12.726 28.7661 12.7668 28.7897 12.7959L28.7779 12.8018Z" fill="white"/>
<path d="M9.66334 10.027L8.40161 9.07099C8.7141 8.4298 9.22115 7.89353 9.84611 7.53796C10.8838 6.91425 12.1633 6.83264 13.2776 7.30479C13.6431 7.45635 13.9733 7.66036 14.2681 7.91684C14.3271 7.9693 14.3271 7.99845 14.2681 8.05091C13.9497 8.35985 13.6372 8.67461 13.3247 8.98355C13.2776 9.03018 13.254 9.04767 13.195 8.98355C12.2517 8.20829 10.8544 8.33653 10.0702 9.26917C9.89918 9.46736 9.76947 9.70052 9.68103 9.94534C9.68103 9.97448 9.68103 10.0036 9.65744 10.027H9.66334Z" fill="#E4472E"/>
<path d="M8.40161 12.4286L9.66334 11.4727C9.83432 11.9565 10.1645 12.3703 10.5949 12.656C11.0253 12.9357 11.5383 13.0582 12.0512 12.9999C12.4286 12.9707 12.7941 12.8483 13.1125 12.6501C13.1125 12.6851 13.1538 12.6968 13.1832 12.7201L14.3212 13.5886C14.0323 13.8684 13.6903 14.0841 13.313 14.2181C12.1043 14.7078 10.7188 14.562 9.63976 13.8276C9.10912 13.4778 8.68462 12.994 8.40751 12.4286H8.40161Z" fill="#42A945"/>
<path d="M14.3093 13.5881L13.1773 12.7196C13.1773 12.7196 13.1183 12.6846 13.1065 12.6496C13.3541 12.4748 13.5605 12.2416 13.702 11.9676C13.7551 11.851 13.7963 11.7345 13.8317 11.6179C13.8553 11.5363 13.8317 11.5071 13.7433 11.5071H11.9096C11.8212 11.5071 11.7917 11.4896 11.7917 11.3906V10.1606C11.7917 10.079 11.8153 10.0615 11.8919 10.0615H15.288C15.4 10.0615 15.3941 10.1257 15.4059 10.1898C15.459 10.5395 15.4649 10.8951 15.4295 11.2507C15.3823 11.8394 15.1937 12.4106 14.8871 12.9178C14.7338 13.1684 14.5392 13.3957 14.3093 13.5881Z" fill="#4782FB"/>
</g>
<defs>
<clipPath id="clip0_1_2374">
<rect width="40" height="25" fill="white"/>
</clipPath>
</defs>
</svg>
