<svg width="13" height="16" viewBox="0 0 13 16" fill="none" xmlns="http://www.w3.org/2000/svg">
<g clip-path="url(#clip0_1_2404)">
<path d="M11.0103 5.33334H10.2585V3.80952C10.2585 1.70666 8.57475 0 6.50006 0C4.42536 0 2.74155 1.70666 2.74155 3.80952V5.33334H1.98985C1.16298 5.33334 0.48645 6.01905 0.48645 6.85714V14.4762C0.48645 15.3143 1.16298 16 1.98985 16H11.0103C11.8371 16 12.5137 15.3143 12.5137 14.4762V6.85714C12.5137 6.01905 11.8371 5.33334 11.0103 5.33334ZM6.50006 12.1905C5.67318 12.1905 4.99666 11.5048 4.99666 10.6666C4.99666 9.82861 5.67318 9.14286 6.50006 9.14286C7.32692 9.14286 8.00345 9.82861 8.00345 10.6666C8.00345 11.5048 7.32692 12.1905 6.50006 12.1905ZM4.24495 5.33334V3.80952C4.24495 2.54476 5.25224 1.52381 6.50006 1.52381C7.74788 1.52381 8.75516 2.54476 8.75516 3.80952V5.33334H4.24495Z" fill="#33498E"/>
</g>
<defs>
<clipPath id="clip0_1_2404">
<rect width="13" height="16" fill="white"/>
</clipPath>
</defs>
</svg>
