<svg width="40" height="25" viewBox="0 0 40 25" fill="none" xmlns="http://www.w3.org/2000/svg">
<g clip-path="url(#clip0_1_2368)">
<path d="M36.2162 0.523438H3.78377C1.99258 0.523438 0.540527 1.92499 0.540527 3.65388V20.3495C0.540527 22.0784 1.99258 23.4799 3.78377 23.4799H36.2162C38.0074 23.4799 39.4595 22.0784 39.4595 20.3495V3.65388C39.4595 1.92499 38.0074 0.523438 36.2162 0.523438Z" fill="white"/>
<path fill-rule="evenodd" clip-rule="evenodd" d="M36.2162 1.00195H3.78378C2.21268 1.00195 1 2.22245 1 3.65413V20.3498C1 21.7815 2.21268 23.002 3.78378 23.002H36.2162C37.7873 23.002 39 21.7815 39 20.3498V3.65413C39 2.22245 37.7873 1.00195 36.2162 1.00195ZM3.78378 0.00195312H36.2162C38.3059 0.00195312 40 1.63709 40 3.65413V20.3498C40 22.3668 38.3059 24.002 36.2162 24.002H3.78378C1.69406 24.002 0 22.3668 0 20.3498V3.65413C0 1.63709 1.69406 0.00195312 3.78378 0.00195312Z" fill="#C3C3C3"/>
<path d="M23.7838 5.43945H16.2162V18.5643H23.7838V5.43945Z" fill="#FF5F00"/>
<path d="M16.6974 12.0003C16.6977 10.7377 16.9941 9.49147 17.5641 8.355C18.1342 7.21853 18.9632 6.22112 19.9892 5.43779C18.7134 4.46962 17.1811 3.86741 15.5675 3.7001C13.9538 3.53279 12.3241 3.8071 10.8644 4.49163C9.4046 5.17616 8.17389 6.24332 7.31283 7.57111C6.45177 8.8989 5.995 10.4339 5.995 12.0003C5.995 13.5668 6.45177 15.1017 7.31283 16.4295C8.17389 17.7573 9.4046 18.8245 10.8644 19.509C12.3241 20.1935 13.9538 20.4678 15.5675 20.3005C17.1811 20.1332 18.7134 19.531 19.9892 18.5628C18.9612 17.7812 18.1307 16.7843 17.5604 15.6474C16.9902 14.5106 16.6951 13.2634 16.6974 12.0003Z" fill="#EB001B"/>
<path d="M33.9937 12.0004C33.9952 13.5661 33.5399 15.1007 32.6801 16.4283C31.8204 17.756 30.5908 18.8231 29.132 19.5078C27.6733 20.1925 26.0442 20.467 24.4313 20.2999C22.8185 20.1327 21.287 19.5309 20.012 18.5629C21.0381 17.7797 21.8671 16.7825 22.4371 15.646C23.007 14.5095 23.3033 13.2631 23.3033 12.0004C23.3033 10.7378 23.007 9.49135 22.4371 8.35485C21.8671 7.21835 21.0381 6.22114 20.012 5.4379C21.287 4.46992 22.8185 3.86811 24.4313 3.70098C26.0442 3.53385 27.6733 3.80831 29.132 4.49301C30.5908 5.17771 31.8204 6.24481 32.6801 7.5725C33.5399 8.90018 33.9952 10.4347 33.9937 12.0004Z" fill="#F79E1B"/>
</g>
<defs>
<clipPath id="clip0_1_2368">
<rect width="40" height="25" fill="white"/>
</clipPath>
</defs>
</svg>
