<svg width="14" height="15" viewBox="0 0 14 15" fill="none" xmlns="http://www.w3.org/2000/svg">
<path d="M13.5844 7.05924L7.40461 0.4351C7.14566 0.157539 6.78873 0 6.41779 0H1.39973C0.629882 0 0 0.675167 0 1.50037V6.8792C0 7.27679 0.146972 7.65938 0.412919 7.93696L6.59276 14.5611C7.13866 15.1463 8.0275 15.1463 8.57339 14.5611L13.5915 9.18226C14.1373 8.59712 14.1373 7.65189 13.5844 7.05924ZM3.14941 4.50111C2.56852 4.50111 2.09961 3.99848 2.09961 3.37583C2.09961 2.75317 2.56852 2.25056 3.14941 2.25056C3.7303 2.25056 4.19921 2.75317 4.19921 3.37583C4.19921 3.99848 3.7303 4.50111 3.14941 4.50111Z" fill="#CD0053"/>
</svg>
