<svg width="24" height="24" viewBox="0 0 24 24" fill="none" xmlns="http://www.w3.org/2000/svg">
<path d="M17.35 21L13.8 17.45L15.225 16.05L17.35 18.175L21.6 13.925L23 15.35L17.35 21ZM13.5 22C11.7 22 10.1667 21.3667 8.9 20.1C7.63333 18.8334 7 17.3 7 15.5V14.925C5.56667 14.6917 4.375 14.0209 3.425 12.9125C2.475 11.8042 2 10.5 2 9V3H5V2H7V6H5V5H4V9C4 10.1 4.39167 11.0417 5.175 11.825C5.95833 12.6084 6.9 13 8 13C9.1 13 10.0417 12.6084 10.825 11.825C11.6083 11.0417 12 10.1 12 9V5H11V6H9V2H11V3H14V9C14 10.5 13.525 11.8042 12.575 12.9125C11.625 14.0209 10.4333 14.6917 9 14.925V15.5C9 16.75 9.4375 17.8125 10.3125 18.6875C11.1875 19.5625 12.25 20 13.5 20V22Z" fill="#001C72"/>
</svg>
