<svg width="44" height="32" viewBox="0 0 44 32" fill="none" xmlns="http://www.w3.org/2000/svg">
<path d="M11.2312 2.36223C9.95892 3.62663 10.1282 5.70438 11.6525 7.54962C12.0384 8.01511 12.3785 8.33839 12.9137 8.75356C13.7604 9.40698 14.7087 9.8832 15.7416 10.1669C16.3441 10.3324 16.8759 10.4073 17.469 10.4069C18.2535 10.4063 18.8775 10.2748 19.4921 9.98284C19.7793 9.84596 20.2313 9.51094 20.4229 9.29325C20.8024 8.86065 21.0193 8.39611 21.11 7.82846C21.2857 6.69736 20.8417 5.41611 19.8579 4.22171C19.4186 3.68933 18.9676 3.27966 18.3158 2.82413C17.4174 2.19726 16.5722 1.8102 15.5642 1.5697C14.9923 1.43206 14.6078 1.38633 14.0376 1.38675C13.2741 1.38593 12.6578 1.51189 12.0662 1.78985C11.8671 1.88204 11.3711 2.22128 11.2312 2.36223Z" fill="#0600FF"/>
<path d="M3.5638 8.66267C3.2745 8.93761 3.11731 9.14412 3.00024 9.39661C2.60295 10.2657 2.84447 11.3212 3.67345 12.3442C4.05546 12.818 4.43191 13.1678 5.01681 13.5913C6.02223 14.3241 7.15422 14.8476 8.43 15.1716C9.20464 15.3676 9.91246 15.4619 10.6147 15.4628C11.6211 15.462 12.4575 15.2787 13.1277 14.9073C13.955 14.4521 14.4 13.6708 14.3246 12.8118C14.2511 11.996 13.774 11.1485 12.9103 10.3041C12.6218 10.024 11.6412 9.30652 11.2569 9.09901C9.71016 8.25926 8.12267 7.81697 6.61877 7.80136C5.42483 7.79109 4.52524 8.0093 3.8128 8.48119C3.70363 8.55518 3.59254 8.63615 3.5638 8.66267Z" fill="#0600FF"/>
<path d="M4.15136 17.5624C3.80594 17.896 3.64245 18.1735 3.57069 18.5425C3.43284 19.2518 3.79728 20.0645 4.61168 20.855C4.85132 21.0898 5.57422 21.6249 5.91328 21.8173C6.43404 22.1148 7.03356 22.3958 7.59195 22.6004C9.71868 23.379 12.0657 23.5111 13.5962 22.9416C13.9451 22.8129 14.1084 22.724 14.4067 22.5065C14.6263 22.3437 14.7014 22.2781 14.8028 22.1523C14.9418 21.9828 15.0959 21.6903 15.1393 21.5194C15.2995 20.8976 15.0923 20.2323 14.5234 19.5277C14.224 19.1563 14.0629 19.0143 13.4374 18.5584C12.9037 18.1721 12.8381 18.1298 12.5028 17.9538C11.8771 17.6263 11.3018 17.3876 10.6329 17.1763C8.45725 16.4907 6.18321 16.4801 4.7931 17.1493C4.613 17.2341 4.24147 17.4749 4.15136 17.5624Z" fill="#0600FF"/>
<path d="M24.4109 4.54535C23.3126 5.69802 23.5066 7.70508 24.8821 9.42978C25.5465 10.2641 26.4697 10.9726 27.4365 11.3927C28.615 11.9042 29.8203 11.9922 30.7582 11.6389C31.0189 11.5417 31.1765 11.4569 31.3961 11.2969C31.6419 11.1177 31.7921 10.9673 31.9593 10.7362C32.288 10.2783 32.4481 9.73296 32.4434 9.10033C32.442 8.72185 32.4068 8.48002 32.3023 8.09752C32.0468 7.15354 31.4763 6.2426 30.6319 5.43023C30.381 5.1872 29.63 4.63165 29.3416 4.47336C28.6203 4.07902 27.9926 3.85403 27.316 3.75206C26.4781 3.62561 25.6662 3.73689 25.0546 4.06254C24.8651 4.16516 24.548 4.40178 24.4109 4.54535Z" fill="#0600FF"/>
<path d="M19.7441 15.3866C18.9446 16.0513 18.1165 17.0043 17.8739 17.5387C17.7065 17.9064 17.6705 18.1838 17.6749 19.076C17.6762 19.4381 17.6644 19.8425 17.6493 19.9737C17.6037 20.3481 17.4153 21.0014 17.0257 22.1262C16.397 23.9412 16.263 24.5685 16.4181 24.9687C16.5992 25.44 17.0091 25.9138 17.6234 26.3615C18.1122 26.7205 18.5356 26.947 19.0884 27.1475C19.6224 27.3425 20.0385 27.4242 20.6852 27.4606C22.8279 27.5806 25.146 26.9175 27.8627 25.407C28.8233 24.8734 29.7071 24.3167 31.9307 22.8462C32.792 22.2757 34.4697 21.0611 34.924 20.6782C36.754 19.1397 37.6631 17.9038 37.9161 16.6001C37.9784 16.2762 37.9923 15.742 37.9402 15.4851C37.8564 15.0521 37.5982 14.7079 37.0701 14.323C36.7536 14.0923 36.4576 13.9258 36.0641 13.754C35.0824 13.3284 34.342 13.18 33.2566 13.1904C32.741 13.1949 32.4016 13.2211 31.2616 13.3422C30.0747 13.4674 29.6323 13.4978 29.0417 13.4914C28.5281 13.4863 28.1419 13.4511 27.0266 13.3111C26.0763 13.1902 25.5589 13.1496 25.0659 13.1541C24.5522 13.16 24.2016 13.2026 23.7665 13.3122C22.3749 13.663 20.9003 14.4238 19.7441 15.3866Z" fill="#0600FF"/>
</svg>
