<svg width="32" height="32" viewBox="0 0 32 32" fill="none" xmlns="http://www.w3.org/2000/svg">
<path d="M30.9537 4.98633C30.9395 4.74168 30.8358 4.5108 30.6626 4.33752C30.4893 4.16424 30.2584 4.06061 30.0137 4.04633C23.5437 3.67133 18.3487 5.63883 16.1162 9.32383C14.6412 11.7601 14.6437 14.7188 16.0962 17.5413C15.2695 18.5255 14.6653 19.6768 14.325 20.9163L12.2912 18.8751C13.2687 16.8338 13.2312 14.7063 12.1662 12.9388C10.5162 10.2151 6.7075 8.75508 1.97875 9.03258C1.7341 9.04686 1.50322 9.15049 1.32994 9.32377C1.15666 9.49705 1.05303 9.72793 1.03875 9.97258C0.759996 14.7013 2.22125 18.5101 4.945 20.1601C5.84383 20.7092 6.87669 20.9999 7.93 21.0001C8.95237 20.9875 9.95884 20.7453 10.875 20.2913L14 23.4163V27.0001C14 27.2653 14.1054 27.5196 14.2929 27.7072C14.4804 27.8947 14.7348 28.0001 15 28.0001C15.2652 28.0001 15.5196 27.8947 15.7071 27.7072C15.8946 27.5196 16 27.2653 16 27.0001V23.3138C15.9955 21.7229 16.5369 20.1787 17.5337 18.9388C18.8199 19.611 20.2464 19.9707 21.6975 19.9888C23.1005 19.9934 24.4774 19.6101 25.6762 18.8813C29.3612 16.6513 31.3337 11.4563 30.9537 4.98633ZM5.97625 18.4501C4.05875 17.2888 2.97375 14.5401 3 11.0001C6.54 10.9701 9.28875 12.0588 10.45 13.9763C11.0562 14.9763 11.155 16.1426 10.7575 17.3438L7.70625 14.2926C7.51718 14.113 7.26543 14.0143 7.00467 14.0176C6.74391 14.021 6.49477 14.126 6.31037 14.3104C6.12597 14.4948 6.0209 14.744 6.01756 15.0048C6.01422 15.2655 6.11288 15.5173 6.2925 15.7063L9.34375 18.7576C8.1425 19.1551 6.9775 19.0563 5.97625 18.4501ZM24.64 17.1726C22.965 18.1863 20.9962 18.2638 18.9962 17.4226L25.7075 10.7101C25.8871 10.521 25.9858 10.2693 25.9824 10.0085C25.9791 9.74774 25.874 9.4986 25.6896 9.3142C25.5052 9.1298 25.2561 9.02473 24.9953 9.02139C24.7346 9.01805 24.4828 9.11671 24.2937 9.29633L17.5812 16.0001C16.7362 14.0001 16.8125 12.0301 17.8312 10.3563C19.5737 7.48133 23.7062 5.87883 28.9975 6.00258C29.1175 11.2926 27.5175 15.4301 24.64 17.1726Z" fill="#010101"/>
</svg>
