<svg width="40" height="25" viewBox="0 0 40 25" fill="none" xmlns="http://www.w3.org/2000/svg">
<g clip-path="url(#clip0_1_2364)">
<path d="M36.2162 0.523438H3.78377C1.99258 0.523438 0.540527 1.92499 0.540527 3.65388V20.3495C0.540527 22.0784 1.99258 23.4799 3.78377 23.4799H36.2162C38.0074 23.4799 39.4595 22.0784 39.4595 20.3495V3.65388C39.4595 1.92499 38.0074 0.523438 36.2162 0.523438Z" fill="white"/>
<path fill-rule="evenodd" clip-rule="evenodd" d="M36.2162 1.00195H3.78378C2.21268 1.00195 1 2.22245 1 3.65413V20.3498C1 21.7815 2.21268 23.002 3.78378 23.002H36.2162C37.7873 23.002 39 21.7815 39 20.3498V3.65413C39 2.22245 37.7873 1.00195 36.2162 1.00195ZM3.78378 0.00195312H36.2162C38.3059 0.00195312 40 1.63709 40 3.65413V20.3498C40 22.3668 38.3059 24.002 36.2162 24.002H3.78378C1.69406 24.002 0 22.3668 0 20.3498V3.65413C0 1.63709 1.69406 0.00195312 3.78378 0.00195312Z" fill="#C3C3C3"/>
<path d="M20.519 10.1678C20.5006 11.5849 21.827 12.3748 22.8259 12.8454C23.8529 13.3275 24.1978 13.6374 24.1935 14.0683C24.1859 14.7289 23.3741 15.02 22.6152 15.0315C21.6736 15.0493 20.7431 14.8337 19.9125 14.4054L19.4357 16.5602C20.3697 16.9111 21.3642 17.0881 22.3665 17.0819C25.1352 17.0819 26.947 15.763 26.9568 13.7177C26.9676 11.1216 23.2368 10.9786 23.2617 9.81827C23.2703 9.46661 23.6183 9.08784 24.3805 8.99601C25.2706 8.9141 26.1671 9.06587 26.9751 9.43531L27.439 7.34835C26.6502 7.06177 25.8146 6.91369 24.9718 6.91113C22.3664 6.91113 20.5329 8.24782 20.5178 10.1626L20.519 10.1678ZM31.8918 7.09165C31.6515 7.08968 31.4162 7.15736 31.2162 7.2859C31.0161 7.41444 30.8606 7.59795 30.7697 7.8127L26.8152 16.9275H29.5816L30.1319 15.4593H33.5124L33.8368 16.9275H36.2703L34.1427 7.0906H31.8908L31.8918 7.09165ZM32.2778 9.74834L33.0768 13.4422H30.8897L32.2778 9.74834ZM17.1633 7.0906L14.9827 16.9275H17.6195L19.799 7.0906H17.1633ZM13.2627 7.0906L10.519 13.7856L9.40861 8.09236C9.3632 7.81264 9.21569 7.55779 8.99265 7.37389C8.7696 7.18999 8.48573 7.08916 8.19239 7.08958H3.70601L3.64319 7.37548C4.54295 7.54776 5.41679 7.8282 6.24428 8.21025C6.4166 8.29039 6.56475 8.41197 6.67437 8.56328C6.78398 8.71458 6.85149 8.89053 6.87034 9.07425L8.97298 16.9243H11.7589L16.0302 7.08748H13.2617" fill="#1A1F71"/>
</g>
<defs>
<clipPath id="clip0_1_2364">
<rect width="40" height="25" fill="white"/>
</clipPath>
</defs>
</svg>
